name C:\Users\u0101727\Documents\MyRepositories\upper-imu-dc\OpenSim\subject0\MA\ResultsMA\grid_4nodes_9dim\angles_9.mot
datacolumns 10
datarows 18
range 925.01000000 925.18000000
endheader 
time	clav_prot	clav_elev	scapula_abduction	scapula_elevation	scapula_upward_rot	scapula_winging	plane_elv	shoulder_elv	axial_rot	
        925.01000000	        -50.00000000	          0.00000000	        -21.66666667	         -3.33333333	         30.00000000	          0.00000000	         30.00000000	         26.66666667	        -30.00000000	
        925.02000000	        -38.33333333	          0.00000000	        -21.66666667	         -3.33333333	         30.00000000	          0.00000000	         30.00000000	         26.66666667	        -30.00000000	
        925.03000000	        -26.66666667	          0.00000000	        -21.66666667	         -3.33333333	         30.00000000	          0.00000000	         30.00000000	         26.66666667	        -30.00000000	
        925.04000000	        -15.00000000	          0.00000000	        -21.66666667	         -3.33333333	         30.00000000	          0.00000000	         30.00000000	         26.66666667	        -30.00000000	
        925.05000000	        -50.00000000	         10.00000000	        -21.66666667	         -3.33333333	         30.00000000	          0.00000000	         30.00000000	         26.66666667	        -30.00000000	
        925.06000000	        -38.33333333	         10.00000000	        -21.66666667	         -3.33333333	         30.00000000	          0.00000000	         30.00000000	         26.66666667	        -30.00000000	
        925.07000000	        -26.66666667	         10.00000000	        -21.66666667	         -3.33333333	         30.00000000	          0.00000000	         30.00000000	         26.66666667	        -30.00000000	
        925.08000000	        -15.00000000	         10.00000000	        -21.66666667	         -3.33333333	         30.00000000	          0.00000000	         30.00000000	         26.66666667	        -30.00000000	
        925.09000000	        -50.00000000	         20.00000000	        -21.66666667	         -3.33333333	         30.00000000	          0.00000000	         30.00000000	         26.66666667	        -30.00000000	
        925.10000000	        -38.33333333	         20.00000000	        -21.66666667	         -3.33333333	         30.00000000	          0.00000000	         30.00000000	         26.66666667	        -30.00000000	
        925.11000000	        -26.66666667	         20.00000000	        -21.66666667	         -3.33333333	         30.00000000	          0.00000000	         30.00000000	         26.66666667	        -30.00000000	
        925.12000000	        -15.00000000	         20.00000000	        -21.66666667	         -3.33333333	         30.00000000	          0.00000000	         30.00000000	         26.66666667	        -30.00000000	
        925.13000000	        -50.00000000	        -10.00000000	         -3.33333333	         -3.33333333	         30.00000000	          0.00000000	         30.00000000	         26.66666667	        -30.00000000	
        925.14000000	        -38.33333333	        -10.00000000	         -3.33333333	         -3.33333333	         30.00000000	          0.00000000	         30.00000000	         26.66666667	        -30.00000000	
        925.15000000	        -26.66666667	        -10.00000000	         -3.33333333	         -3.33333333	         30.00000000	          0.00000000	         30.00000000	         26.66666667	        -30.00000000	
        925.16000000	        -15.00000000	        -10.00000000	         -3.33333333	         -3.33333333	         30.00000000	          0.00000000	         30.00000000	         26.66666667	        -30.00000000	
        925.17000000	        -50.00000000	          0.00000000	         -3.33333333	         -3.33333333	         30.00000000	          0.00000000	         30.00000000	         26.66666667	        -30.00000000	
        925.18000000	        -38.33333333	          0.00000000	         -3.33333333	         -3.33333333	         30.00000000	          0.00000000	         30.00000000	         26.66666667	        -30.00000000	
